<svg xmlns="http://www.w3.org/2000/svg" viewBox="0 0 24 24" id="Knives-Set--Streamline-Ultimate" height="24" width="24">
  <desc>
    Knives Set Streamline Icon: https://streamlinehq.com
  </desc>
  <g>
    <path d="M12.41 11.79c0.63 -0.53 1.26 -1.08 1.88 -1.66a0.48 0.48 0 0 0 0.16 -0.35 0.55 0.55 0 0 0 -0.14 -0.37l-3.17 -3.17L8.37 9" fill="none" stroke="#000000" stroke-linecap="round" stroke-linejoin="round" stroke-width="1"></path>
    <path d="M18.56 3.06A1.5 1.5 0 0 0 16.44 0.94l-5.3 5.3 2.12 2.12Z" fill="none" stroke="#000000" stroke-linecap="round" stroke-linejoin="round" stroke-width="1"></path>
    <path d="M16.46 17.82c0.79 -0.64 1.57 -1.32 2.33 -2a0.48 0.48 0 0 0 0.16 -0.36 0.54 0.54 0 0 0 -0.14 -0.36l-3.17 -3.2L14 13.54" fill="none" stroke="#000000" stroke-linecap="round" stroke-linejoin="round" stroke-width="1"></path>
    <path d="M23.06 8.72a1.5 1.5 0 0 0 -2.12 -2.12l-5.3 5.3 2.12 2.1Z" fill="none" stroke="#000000" stroke-linecap="round" stroke-linejoin="round" stroke-width="1"></path>
    <path d="M0.5 22.5a1 1 0 0 0 1 1h15a1 1 0 0 0 0.73 -0.32 1 1 0 0 0 0.27 -0.75A16 16 0 0 0 1.5 7.5a1 1 0 0 0 -1 1Z" fill="none" stroke="#000000" stroke-linecap="round" stroke-linejoin="round" stroke-width="1"></path>
    <path d="m4 16 4 -4" fill="none" stroke="#000000" stroke-linecap="round" stroke-linejoin="round" stroke-width="1"></path>
    <path d="m8.5 20.5 4 -4" fill="none" stroke="#000000" stroke-linecap="round" stroke-linejoin="round" stroke-width="1"></path>
  </g>
</svg>